# xmcd
#
# Track frame offsets:
#	150
#	31530
#	60776
#	85984
#	113594
#	141486
#	170041
#	204802
#	235590
#
# Disc length: 3533 seconds
#
# Revision: 1
# Processed by: cddbd v1.5.1PL2 Copyright (c) Steve Scherf et al.
# Submitted via: audiograbber 1.83.01
#
DISCID=650dcb09
DTITLE=Robert Miles - Dreamland
DYEAR=1900
DGENRE=
TTITLE0=Children
TTITLE1=Fable
TTITLE2=Fantasya
TTITLE3=Landscape
TTITLE4=In My Dreams
TTITLE5=Princess of light
TTITLE6=In the Dawn
TTITLE7=Red Zone
TTITLE8=One , one
EXTD=
EXTT0=
EXTT1=
EXTT2=
EXTT3=
EXTT4=
EXTT5=
EXTT6=
EXTT7=
EXTT8=
PLAYORDER=
